# Blender v3.6.4 OBJ File: 'meshes.blend'
# www.blender.org
mtllib magnet.mtl
o Magnet
v -1.000000 -0.623111 0.181948
v -1.000000 -0.623111 2.181948
v -1.000000 0.623111 0.181948
v -1.000000 0.623111 2.181948
v -1.000000 -0.623111 1.181948
v -1.000000 0.623111 1.181948
v -1.687592 -0.623111 1.181948
v -1.687592 -0.623111 2.181948
v -1.687592 0.623111 2.181948
v -1.687592 0.623111 1.181948
v -1.000000 -0.623111 3.304366
v -1.000000 0.623111 3.304366
v -1.687592 -0.623111 3.304366
v -1.687592 0.623111 3.304366
v 1.000000 -0.623111 0.181948
v 1.000000 -0.623111 2.181948
v 1.000000 0.623111 0.181948
v 1.000000 0.623111 2.181948
v 1.000000 -0.623111 1.181948
v 1.000000 0.623111 1.181948
v 1.687592 -0.623111 1.181948
v 1.687592 -0.623111 2.181948
v 1.687592 0.623111 2.181948
v 1.687592 0.623111 1.181948
v 1.000000 -0.623111 3.304366
v 1.000000 0.623111 3.304366
v 1.687592 -0.623111 3.304366
v 1.687592 0.623111 3.304366
vt 0.500000 1.000000
vt 0.625000 1.000000
vt 0.625000 1.000000
vt 0.500000 1.000000
vt 0.500000 0.250000
vt 0.500000 0.250000
vt 0.625000 0.250000
vt 0.625000 0.250000
vt 0.125000 0.500000
vt 0.125000 0.750000
vt 0.125000 0.750000
vt 0.125000 0.500000
vt 0.875000 0.750000
vt 0.875000 0.750000
vt 0.875000 0.500000
vt 0.875000 0.500000
vt 0.375000 0.000000
vt 0.500000 0.000000
vt 0.375000 0.250000
vt 0.500000 0.000000
vt 0.625000 0.000000
vt 0.625000 0.250000
vt 0.500000 0.250000
vt 0.625000 0.000000
vt 0.625000 0.250000
vt 0.875000 0.750000
vt 0.875000 0.500000
vt 0.875000 0.500000
vt 0.875000 0.750000
vt 0.625000 1.000000
vt 0.625000 1.000000
vt 0.625000 0.250000
vt 0.375000 1.000000
vt 0.375000 1.000000
vt 0.500000 1.000000
vt 0.625000 1.000000
vt 0.500000 1.000000
vt 0.625000 1.000000
vt 0.375000 0.000000
vt 0.375000 0.250000
vt 0.500000 0.000000
vt 0.500000 0.000000
vt 0.500000 0.250000
vt 0.625000 0.250000
vt 0.625000 0.000000
vt 0.625000 0.250000
vt 0.625000 0.000000
vt 0.875000 0.750000
vt 0.875000 0.750000
vt 0.875000 0.500000
vt 0.875000 0.500000
vt 0.625000 1.000000
vt 0.625000 1.000000
vt 0.625000 0.250000
vn 0.0000 -1.0000 0.0000
vn 0.0000 1.0000 0.0000
vn 0.0000 0.0000 -1.0000
vn 0.0000 0.0000 1.0000
vn -1.0000 0.0000 0.0000
vn 1.0000 0.0000 0.0000
usemtl None
s off
f 5/1/1 2/2/1 8/3/1 7/4/1
f 20/5/2 6/6/2 4/7/2 18/8/2
f 17/9/3 15/10/3 1/11/3 3/12/3
f 2/13/4 16/14/4 18/15/4 4/16/4
f 1/17/5 5/18/5 6/6/5 3/19/5
f 7/20/5 8/21/5 9/22/5 10/23/5
f 6/6/3 5/18/3 7/20/3 10/23/3
f 9/22/5 8/21/5 13/24/5 14/25/5
f 4/7/2 6/6/2 10/23/2 9/22/2
f 11/26/4 12/27/4 14/28/4 13/29/4
f 2/13/6 4/16/6 12/27/6 11/26/6
f 8/3/1 2/2/1 11/30/1 13/31/1
f 4/7/2 9/22/2 14/25/2 12/32/2
f 1/33/1 15/34/1 19/35/1 5/1/1
f 5/1/1 19/35/1 16/36/1 2/2/1
f 19/35/1 21/37/1 22/38/1 16/36/1
f 15/39/6 17/40/6 20/5/6 19/41/6
f 21/42/6 24/43/6 23/44/6 22/45/6
f 20/5/3 24/43/3 21/42/3 19/41/3
f 23/44/6 28/46/6 27/47/6 22/45/6
f 18/8/2 23/44/2 24/43/2 20/5/2
f 25/48/4 27/49/4 28/50/4 26/51/4
f 16/14/5 25/48/5 26/51/5 18/15/5
f 22/38/1 27/52/1 25/53/1 16/36/1
f 18/8/2 26/54/2 28/46/2 23/44/2
f 17/40/2 3/19/2 6/6/2 20/5/2
