# Blender 4.2.0
# www.blender.org
mtllib piece.mtl
o Piece
v -53.303650 -53.202030 0.363019
v -80.153816 52.621471 46.482265
v -51.790432 52.604118 0.363019
v -80.817780 -52.605438 46.009335
v -0.416145 -53.203270 0.363019
v -1.254821 52.224815 0.363019
v -49.772903 -0.955993 0.588496
v -76.062378 -1.129758 46.475159
v -2.075362 -1.050567 2.003865
v -50.031120 -26.842127 0.268950
v -79.635948 -27.288088 46.447159
v -0.419459 -26.450497 0.056186
v -7.937582 21.045183 3.292988
v -51.761616 26.009163 1.857417
v -63.509205 24.606613 47.188450
v -25.549255 52.515965 0.363019
v -26.875982 -52.967987 0.363019
v -27.448469 -0.045447 1.844037
v -25.893526 -24.762737 -1.250638
v -27.435461 25.298689 -1.006575
v -66.862442 -52.627235 22.610973
v -65.890259 52.426506 24.133900
v -56.616001 -5.271871 19.887772
v -53.227444 21.833492 25.756109
v -52.331287 -39.892189 0.483082
v -60.240944 -52.988956 11.776670
v -72.564232 52.349022 35.068207
v -37.846352 52.462070 0.363019
v -13.638924 -53.063293 0.363019
v -80.173149 -39.730286 45.887070
v -3.698220 37.227463 1.537727
v -51.886246 12.584011 1.657121
v -68.205765 11.637970 46.653713
v -0.654473 -13.362479 0.562092
v -38.642029 -0.295319 1.118310
v -66.454544 -3.302505 33.289810
v -46.540047 -14.128289 0.096197
v -79.216331 -14.374486 46.719631
v -0.416145 -39.804058 0.253941
v -61.013405 -30.624475 35.319771
v -37.952095 -25.937981 0.253009
v -5.153390 10.298291 3.798904
v -50.982109 39.222580 1.012054
v -68.938087 38.454105 47.008698
v -38.541161 25.926390 -0.991092
v -58.979496 23.072556 35.322956
v -13.849424 52.358418 0.363019
v -40.157402 -53.063293 0.363019
v -15.299583 -0.570251 1.989542
v -13.462527 -25.787542 0.252980
v -17.457932 23.799463 0.595912
v -29.084824 12.644337 2.428819
v -26.631071 -39.053459 0.252746
v -26.164644 -12.592355 0.829668
v -25.642086 38.612324 -1.680563
v -73.721504 -52.384632 33.858616
v -59.426624 52.673687 12.606948
v -53.890648 -2.461392 10.509974
v -55.441021 -28.051502 9.808685
v -55.711254 24.736687 14.124421
v -58.191322 9.607568 23.293514
v -60.755535 -40.579876 21.935232
v -56.499119 -17.365938 21.435530
v -60.756996 37.876083 25.165279
v -64.461769 37.800697 35.640583
v -15.437398 37.861355 -0.258621
v -13.843973 -12.893153 0.938812
v -62.848808 -17.078905 35.689159
v -65.312447 -40.009323 34.260506
v -13.537960 -39.370251 0.436969
v -17.215780 11.438745 2.092006
v -62.599819 10.070920 34.344795
v -39.926960 12.915524 0.680044
v -39.477623 -39.413162 0.436967
v -37.144272 -13.152864 0.650402
v -35.361065 38.685131 -1.986983
v -55.880867 11.146364 12.667165
v -59.007023 -40.478176 10.739748
v -54.468040 -15.727359 9.849442
v -57.309967 38.813560 13.643376
v -58.627327 -28.972908 21.685381
v 52.471359 -53.202030 0.363019
v 79.321526 52.621471 46.482265
v 50.958141 52.604118 0.363019
v 79.985489 -52.605438 46.009335
v 48.940613 -0.955993 0.588496
v 75.230087 -1.129758 46.475159
v 49.198830 -26.842127 0.268950
v 78.803658 -27.288088 46.447159
v 50.929325 26.009163 1.857417
v 62.676914 24.606613 47.188450
v 24.526981 52.547215 0.363019
v 26.043692 -52.967987 0.363019
v 26.225840 -0.023504 1.837788
v 25.061235 -24.762737 -1.250638
v 24.451044 25.413460 -1.039260
v 66.030151 -52.627235 22.610973
v 65.057968 52.426506 24.133900
v 55.783710 -5.271871 19.887772
v 52.395153 21.833492 25.756109
v 51.498997 -39.892189 0.483082
v 59.408653 -52.988956 11.776670
v 71.731941 52.349022 35.068207
v 37.014061 52.462070 0.363019
v 12.806633 -53.063293 0.363019
v 79.340858 -39.730286 45.887070
v 51.053955 12.584011 1.657121
v 67.373474 11.637970 46.653713
v 37.808224 -0.295319 1.118310
v 65.622253 -3.302505 33.289810
v 45.707756 -14.128289 0.096197
v 78.384041 -14.374486 46.719631
v 60.181114 -30.624475 35.319771
v 37.119804 -25.937981 0.253009
v 50.149818 39.222580 1.012054
v 68.105797 38.454105 47.008698
v 37.620892 25.956123 -0.999560
v 58.147205 23.072556 35.322956
v 11.937854 52.405800 0.363019
v 39.325111 -53.063293 0.363019
v 12.398216 -0.551465 1.984192
v 12.629982 -25.787542 0.252980
v 9.539798 23.892445 0.569433
v 27.038267 12.712694 2.409352
v 25.798780 -39.053459 0.252746
v 25.281860 -12.592355 0.829668
v 23.330297 38.717510 -1.710519
v 72.889214 -52.384632 33.858616
v 58.594334 52.673687 12.606948
v 53.058357 -2.461392 10.509974
v 54.608730 -28.051502 9.808685
v 54.878963 24.736687 14.124421
v 57.359032 9.607568 23.293514
v 59.923244 -40.579876 21.935232
v 55.666828 -17.365938 21.435530
v 59.924706 37.876083 25.165279
v 63.629478 37.800697 35.640583
v 10.256541 37.980186 -0.292462
v 12.712262 -12.892761 0.938700
v 62.016518 -17.078905 35.689159
v 64.480156 -40.009323 34.260506
v 12.705669 -39.370251 0.436969
v 11.097782 11.448151 2.089328
v 61.767529 10.070920 34.344795
v 39.086979 12.916113 0.679876
v 38.645332 -39.413162 0.436967
v 36.311981 -13.152864 0.650402
v 34.392887 38.720818 -1.997146
v 55.048576 11.146364 12.667165
v 58.174732 -40.478176 10.739748
v 53.635750 -15.727359 9.849442
v 56.477676 38.813560 13.643376
v 57.795036 -28.972908 21.685381
vn 0.4988 -0.0365 0.8659
vn 0.6931 0.5653 0.4473
vn 0.4943 0.0719 0.8663
vn 0.8632 -0.0384 0.5034
vn -0.0000 0.0081 1.0000
vn 0.0345 0.0372 0.9987
vn 0.5424 0.0780 0.8365
vn 0.7473 -0.2985 0.5937
vn 0.0224 -0.1095 0.9937
vn 0.4975 -0.0749 0.8642
vn 0.5544 -0.0671 0.8296
vn -0.0001 -0.0114 0.9999
vn -0.0545 0.0829 0.9951
vn 0.6532 0.0387 0.7562
vn 0.9323 0.0310 0.3604
vn -0.0353 -0.1209 0.9920
vn 0.0001 0.0010 1.0000
vn -0.0275 -0.0546 0.9981
vn -0.0027 -0.0061 1.0000
vn -0.0639 0.1654 0.9841
vn 0.7892 -0.4280 0.4404
vn 0.8495 0.3318 0.4101
vn 0.9256 0.0488 0.3752
vn 0.9765 0.0402 0.2115
vn 0.4980 -0.0715 0.8642
vn 0.8880 -0.1540 0.4334
vn 0.7562 0.4963 0.4263
vn 0.0570 -0.1036 0.9930
vn 0.0034 -0.0020 1.0000
vn 0.6836 -0.1457 0.7151
vn 0.0144 0.0688 0.9975
vn 0.6282 -0.0044 0.7781
vn 0.8210 -0.3366 0.4611
vn 0.0035 -0.0757 0.9971
vn -0.0675 -0.0211 0.9975
vn 0.8012 -0.0306 0.5977
vn 0.3769 -0.0482 0.9250
vn 0.6383 -0.0011 0.7698
vn -0.0000 0.0078 1.0000
vn 0.8136 -0.1315 0.5664
vn 0.0419 0.0100 0.9991
vn 0.0100 -0.0271 0.9996
vn 0.5625 0.0276 0.8263
vn 0.8250 0.4448 0.3487
vn 0.0930 0.1068 0.9899
vn 0.9013 0.0364 0.4316
vn -0.0344 -0.0018 0.9994
vn 0.0010 -0.0064 1.0000
vn -0.0290 -0.0710 0.9971
vn -0.0371 -0.0048 0.9993
vn -0.1627 0.1240 0.9788
vn -0.0547 0.0854 0.9948
vn 0.0012 0.0322 0.9995
vn -0.0114 -0.1250 0.9921
vn -0.0897 -0.0415 0.9951
vn 0.7223 -0.3728 0.5826
vn 0.8619 0.1457 0.4857
vn 0.9260 0.0588 0.3728
vn 0.9178 -0.1551 0.3655
vn 0.9848 0.1194 0.1264
vn 0.9172 -0.2343 0.3222
vn 0.9254 -0.2734 0.2626
vn 0.9516 -0.0503 0.3031
vn 0.9045 0.3225 0.2791
vn 0.8643 0.3784 0.3315
vn -0.1371 0.0207 0.9903
vn -0.0114 -0.0885 0.9960
vn 0.7581 0.1241 0.6402
vn 0.7071 -0.3884 0.5909
vn 0.0020 0.0060 1.0000
vn -0.0700 0.0295 0.9971
vn 0.8608 -0.2972 0.4131
vn -0.0271 0.0439 0.9987
vn 0.0065 0.0058 1.0000
vn -0.0195 -0.0618 0.9979
vn 0.0714 -0.0476 0.9963
vn 0.9731 -0.0314 0.2284
vn 0.9243 -0.1381 0.3559
vn 0.9132 -0.0766 0.4004
vn 0.9127 0.1514 0.3794
vn 0.9626 -0.1451 0.2288
vn -0.4988 -0.0365 0.8659
vn -0.6931 0.5653 0.4473
vn -0.4943 0.0719 0.8663
vn -0.8632 -0.0384 0.5034
vn -0.5424 0.0780 0.8365
vn -0.7473 -0.2985 0.5937
vn -0.4975 -0.0749 0.8642
vn -0.5544 -0.0671 0.8296
vn -0.6529 0.0386 0.7564
vn -0.9323 0.0310 0.3604
vn 0.0062 -0.1552 0.9879
vn -0.0001 0.0010 1.0000
vn 0.0266 -0.0539 0.9982
vn 0.0024 -0.0060 1.0000
vn 0.0298 0.1440 0.9891
vn -0.7892 -0.4280 0.4404
vn -0.8495 0.3318 0.4101
vn -0.9256 0.0488 0.3752
vn -0.9765 0.0402 0.2115
vn -0.4980 -0.0715 0.8642
vn -0.8880 -0.1540 0.4334
vn -0.7562 0.4963 0.4263
vn -0.0575 -0.1038 0.9929
vn -0.0034 -0.0020 1.0000
vn -0.6836 -0.1457 0.7151
vn -0.6282 -0.0044 0.7781
vn -0.8210 -0.3366 0.4611
vn 0.0651 -0.0194 0.9977
vn -0.8012 -0.0306 0.5977
vn -0.3769 -0.0482 0.9250
vn -0.6383 -0.0011 0.7698
vn -0.8136 -0.1315 0.5664
vn -0.0419 0.0100 0.9991
vn -0.5622 0.0277 0.8265
vn -0.8250 0.4448 0.3487
vn -0.0925 0.1058 0.9901
vn -0.9013 0.0364 0.4316
vn 0.0294 -0.0781 0.9965
vn -0.0010 -0.0064 1.0000
vn 0.0037 -0.0496 0.9988
vn 0.0377 -0.0043 0.9993
vn 0.1116 0.0906 0.9896
vn 0.0324 0.1022 0.9942
vn -0.0012 0.0322 0.9995
vn 0.0111 -0.1242 0.9922
vn 0.0556 -0.0354 0.9978
vn -0.7223 -0.3728 0.5826
vn -0.8619 0.1457 0.4857
vn -0.9260 0.0588 0.3728
vn -0.9178 -0.1551 0.3655
vn -0.9848 0.1194 0.1264
vn -0.9172 -0.2343 0.3222
vn -0.9254 -0.2734 0.2626
vn -0.9516 -0.0503 0.3031
vn -0.9045 0.3225 0.2791
vn -0.8643 0.3784 0.3315
vn 0.1011 0.0178 0.9947
vn 0.0076 -0.0837 0.9965
vn -0.7581 0.1241 0.6402
vn -0.7071 -0.3884 0.5909
vn -0.0020 0.0060 1.0000
vn 0.0436 0.0600 0.9972
vn -0.8608 -0.2972 0.4131
vn 0.0191 0.0439 0.9989
vn -0.0065 0.0058 1.0000
vn 0.0193 -0.0615 0.9979
vn -0.0732 -0.0484 0.9961
vn -0.9731 -0.0314 0.2284
vn -0.9243 -0.1381 0.3559
vn -0.9132 -0.0766 0.4004
vn -0.9127 0.1514 0.3794
vn -0.9626 -0.1451 0.2288
vt 0.157079 0.167096
vt 0.276946 0.122150
vt 0.293211 0.167762
vt 0.032911 0.167611
vt 0.151810 0.117706
vt 0.019064 0.111773
vt 0.139917 0.063960
vt 0.257760 0.066934
vt 0.305621 0.437112
vt 0.178734 0.403526
vt 0.286558 0.391421
vt 0.334577 0.481403
vt 0.190099 0.450120
vt 0.201417 0.504458
vt 0.071569 0.461733
vt 0.064181 0.408561
vt 0.714437 0.384569
vt 0.618093 0.444776
vt 0.609312 0.386502
vt 0.728807 0.443350
vt 0.628236 0.506984
vt 0.522403 0.503249
vt 0.512115 0.441239
vt 0.501429 0.384281
vt 0.518197 0.181946
vt 0.614543 0.109773
vt 0.607979 0.170861
vt 0.498356 0.108754
vt 0.580161 0.023749
vt 0.673069 0.016256
vt 0.705960 0.099304
vt 0.914602 0.122553
vt 0.781711 0.094394
vt 0.889735 0.063562
vt 0.768242 0.011781
vt 0.872281 0.000072
vt 0.956486 0.373418
vt 0.845092 0.439799
vt 0.836891 0.377766
vt 0.962356 0.436233
vt 0.854313 0.501895
vt 0.740070 0.505009
vt 0.409720 0.435404
vt 0.394068 0.380681
vt 0.424900 0.491575
vt 0.394669 0.169358
vt 0.384878 0.115796
vt 0.365239 0.056962
vt 0.476051 0.035861
vt 0.493703 0.279185
vt 0.384233 0.330014
vt 0.379868 0.274223
vt 0.496744 0.331345
vt 0.275814 0.340817
vt 0.268051 0.278337
vt 0.952161 0.309957
vt 0.833303 0.256142
vt 0.946616 0.246387
vt 0.834644 0.316711
vt 0.719294 0.326857
vt 0.723081 0.269720
vt 0.611838 0.287063
vt 0.608555 0.333701
vt 0.157763 0.286971
vt 0.172773 0.359621
vt 0.058129 0.352641
vt 0.046846 0.289809
vt 0.502068 0.228031
vt 0.271263 0.218182
vt 0.385562 0.220059
vt 0.827651 0.198966
vt 0.931801 0.183685
vt 0.723130 0.218751
vt 0.814772 0.147690
vt 0.616186 0.224147
vt 0.154089 0.221670
vt 0.039706 0.225819
vt 0.347520 0.910928
vt 0.220356 0.872786
vt 0.355591 0.864690
vt 0.223908 0.922176
vt 0.096836 0.879071
vt 0.221644 0.976251
vt 0.093012 0.935328
vt 0.338251 0.966865
vt 0.307879 0.632345
vt 0.199897 0.569338
vt 0.316556 0.563279
vt 0.078215 0.519131
vt 0.197966 0.629508
vt 0.081062 0.579485
vt 0.736007 0.626217
vt 0.629341 0.570212
vt 0.739848 0.566984
vt 0.523909 0.571268
vt 0.631135 0.629797
vt 0.685356 0.904864
vt 0.576788 0.838345
vt 0.668018 0.844486
vt 0.666398 0.992257
vt 0.570022 0.912193
vt 0.760090 0.994658
vt 0.778096 0.910306
vt 0.981420 0.875858
vt 0.854278 0.911073
vt 0.877720 0.856288
vt 0.967131 0.935858
vt 0.855502 0.993937
vt 0.978705 0.624140
vt 0.856152 0.564174
vt 0.973437 0.561347
vt 0.968976 0.498770
vt 0.858992 0.626316
vt 0.524073 0.636303
vt 0.422131 0.567605
vt 0.417501 0.641937
vt 0.456194 0.857577
vt 0.455954 0.911365
vt 0.446860 0.970923
vt 0.535236 0.742991
vt 0.417417 0.698332
vt 0.529064 0.690966
vt 0.307283 0.692981
vt 0.310914 0.756065
vt 0.422908 0.754094
vt 0.876957 0.747452
vt 0.985626 0.687484
vt 0.991352 0.750997
vt 0.867571 0.687153
vt 0.751076 0.683338
vt 0.764962 0.739941
vt 0.651293 0.728746
vt 0.639774 0.682560
vt 0.199622 0.753522
vt 0.201127 0.679697
vt 0.083785 0.637031
vt 0.088591 0.693789
vt 0.552595 0.793399
vt 0.324806 0.815743
vt 0.438154 0.807656
vt 0.881453 0.804607
vt 0.774032 0.790615
vt 0.987709 0.814145
vt 0.666748 0.791062
vt 0.207653 0.818685
vt 0.093198 0.820847
vt 0.088793 0.756857
vt 0.762843 0.841588
vt 0.708706 0.152569
vt -0.002331 0.052543
vt 0.082283 0.995370
vt 0.560754 0.985873
vt 0.961009 0.999928
s 1
usemtl PieceMtl
f 64/1/64 46/2/46 24/3/24
f 22/4/22 65/5/65 64/1/64
f 27/6/27 44/7/44 65/5/65
f 65/5/65 15/8/15 46/2/46
f 51/9/51 55/10/55 20/11/20
f 13/12/13 66/13/66 51/9/51
f 31/14/31 47/15/47 66/13/66
f 66/13/66 16/16/16 55/10/55
f 19/17/19 67/18/67 54/19/54
f 50/20/50 34/21/34 67/18/67
f 67/18/67 9/22/9 49/23/49
f 54/19/54 49/23/49 18/24/18
f 23/25/23 68/26/68 63/27/63
f 36/28/36 38/29/38 68/26/68
f 68/26/68 11/30/11 40/31/40
f 21/32/21 69/33/69 56/34/56
f 69/33/69 11/30/11 30/35/30
f 56/34/56 30/35/30 4/36/4
f 17/37/17 70/38/70 53/39/53
f 29/40/29 39/41/39 70/38/70
f 70/38/70 12/42/12 50/20/50
f 53/39/53 50/20/50 19/17/19
f 18/24/18 71/43/71 52/44/52
f 49/23/49 42/45/42 71/43/71
f 71/43/71 13/12/13 51/9/51
f 52/44/52 51/9/51 20/11/20
f 61/46/61 36/28/36 23/25/23
f 24/3/24 72/47/72 61/46/61
f 46/2/46 33/48/33 72/47/72
f 36/28/36 33/48/33 8/49/8
f 7/50/7 73/51/73 32/52/32
f 35/53/35 52/44/52 73/51/73
f 52/44/52 45/54/45 73/51/73
f 73/51/73 14/55/14 32/52/32
f 48/56/48 25/57/25 1/58/1
f 17/37/17 74/59/74 48/56/48
f 53/39/53 41/60/41 74/59/74
f 74/59/74 10/61/10 25/57/25
f 41/60/41 37/62/37 10/61/10
f 19/17/19 75/63/75 41/60/41
f 75/63/75 18/24/18 35/53/35
f 37/62/37 35/53/35 7/50/7
f 45/54/45 43/64/43 14/55/14
f 20/11/20 76/65/76 45/54/45
f 76/65/76 16/16/16 28/66/28
f 43/64/43 28/66/28 3/67/3
f 32/52/32 58/68/58 7/50/7
f 32/52/32 60/69/60 77/70/77
f 77/70/77 24/3/24 61/46/61
f 77/70/77 23/25/23 58/68/58
f 1/58/1 78/71/78 26/72/26
f 25/57/25 59/73/59 78/71/78
f 26/72/26 62/74/62 21/32/21
f 10/61/10 79/75/79 59/73/59
f 37/62/37 58/68/58 79/75/79
f 79/75/79 23/25/23 63/27/63
f 14/55/14 80/76/80 60/69/60
f 43/64/43 57/77/57 80/76/80
f 80/76/80 22/4/22 64/1/64
f 60/69/60 64/1/64 24/3/24
f 118/78/118 136/79/136 100/80/100
f 137/81/137 98/82/98 136/79/136
f 116/83/116 103/84/103 137/81/137
f 91/85/91 137/81/137 118/78/118
f 96/86/96 138/87/138 123/88/123
f 123/88/123 31/14/31 13/12/13
f 138/87/138 6/89/6 31/14/31
f 127/90/127 119/91/119 138/87/138
f 95/92/95 139/93/139 122/94/122
f 122/94/122 34/21/34 12/42/12
f 121/95/121 34/21/34 139/93/139
f 126/96/126 121/95/121 139/93/139
f 140/97/140 99/98/99 135/99/135
f 112/100/112 110/101/110 140/97/140
f 89/102/89 140/97/140 113/103/113
f 97/104/97 141/105/141 134/106/134
f 141/105/141 89/102/89 113/103/113
f 128/107/128 106/108/106 141/105/141
f 93/109/93 142/110/142 105/111/105
f 105/111/105 39/41/39 5/112/5
f 142/110/142 12/42/12 39/41/39
f 125/113/125 122/94/122 142/110/142
f 94/114/94 143/115/143 121/95/121
f 143/115/143 9/22/9 121/95/121
f 123/88/123 42/45/42 143/115/143
f 96/86/96 143/115/143 124/116/124
f 110/101/110 133/117/133 99/98/99
f 144/118/144 100/80/100 133/117/133
f 108/119/108 118/78/118 144/118/144
f 110/101/110 108/119/108 144/118/144
f 86/120/86 145/121/145 109/122/109
f 109/122/109 124/116/124 94/114/94
f 117/123/117 124/116/124 145/121/145
f 90/124/90 145/121/145 107/125/107
f 101/126/101 120/127/120 82/128/82
f 146/129/146 93/109/93 120/127/120
f 114/130/114 125/113/125 146/129/146
f 88/131/88 146/129/146 101/126/101
f 111/132/111 114/130/114 88/131/88
f 147/133/147 95/92/95 114/130/114
f 147/133/147 94/114/94 126/96/126
f 111/132/111 109/122/109 147/133/147
f 115/134/115 117/123/117 90/124/90
f 148/135/148 96/86/96 117/123/117
f 148/135/148 92/136/92 127/90/127
f 115/134/115 104/137/104 148/135/148
f 130/138/130 107/125/107 86/120/86
f 107/125/107 132/139/132 90/124/90
f 149/140/149 100/80/100 132/139/132
f 99/98/99 149/140/149 130/138/130
f 82/128/82 150/141/150 101/126/101
f 101/126/101 131/142/131 88/131/88
f 113/103/113 134/106/134 141/105/141
f 102/143/102 134/106/134 150/141/150
f 88/131/88 151/144/151 111/132/111
f 111/132/111 130/138/130 86/120/86
f 151/144/151 99/98/99 130/138/130
f 90/124/90 152/145/152 115/134/115
f 115/134/115 129/146/129 84/147/84
f 152/145/152 98/82/98 129/146/129
f 132/139/132 136/79/136 152/145/152
f 140/97/140 153/148/153 113/103/113
f 62/74/62 40/31/40 69/33/69
f 68/26/68 81/149/81 63/27/63
f 63/27/63 59/73/59 79/75/79
f 81/149/81 78/71/78 59/73/59
f 150/141/150 153/148/153 131/142/131
f 135/99/135 131/142/131 153/148/153
f 64/1/64 65/5/65 46/2/46
f 22/4/22 27/6/27 65/5/65
f 27/6/27 2/150/2 44/7/44
f 65/5/65 44/7/44 15/8/15
f 51/9/51 66/13/66 55/10/55
f 13/12/13 31/14/31 66/13/66
f 31/14/31 6/89/6 47/15/47
f 66/13/66 47/15/47 16/16/16
f 19/17/19 50/20/50 67/18/67
f 50/20/50 12/42/12 34/21/34
f 67/18/67 34/21/34 9/22/9
f 54/19/54 67/18/67 49/23/49
f 23/25/23 36/28/36 68/26/68
f 36/28/36 8/49/8 38/29/38
f 68/26/68 38/29/38 11/30/11
f 21/32/21 62/74/62 69/33/69
f 69/33/69 40/31/40 11/30/11
f 56/34/56 69/33/69 30/35/30
f 17/37/17 29/40/29 70/38/70
f 29/40/29 5/112/5 39/41/39
f 70/38/70 39/41/39 12/42/12
f 53/39/53 70/38/70 50/20/50
f 18/24/18 49/23/49 71/43/71
f 49/23/49 9/22/9 42/45/42
f 71/43/71 42/45/42 13/12/13
f 52/44/52 71/43/71 51/9/51
f 61/46/61 72/47/72 36/28/36
f 24/3/24 46/2/46 72/47/72
f 46/2/46 15/8/15 33/48/33
f 36/28/36 72/47/72 33/48/33
f 7/50/7 35/53/35 73/51/73
f 35/53/35 18/24/18 52/44/52
f 52/44/52 20/11/20 45/54/45
f 73/51/73 45/54/45 14/55/14
f 48/56/48 74/59/74 25/57/25
f 17/37/17 53/39/53 74/59/74
f 53/39/53 19/17/19 41/60/41
f 74/59/74 41/60/41 10/61/10
f 41/60/41 75/63/75 37/62/37
f 19/17/19 54/19/54 75/63/75
f 75/63/75 54/19/54 18/24/18
f 37/62/37 75/63/75 35/53/35
f 45/54/45 76/65/76 43/64/43
f 20/11/20 55/10/55 76/65/76
f 76/65/76 55/10/55 16/16/16
f 43/64/43 76/65/76 28/66/28
f 32/52/32 77/70/77 58/68/58
f 32/52/32 14/55/14 60/69/60
f 77/70/77 60/69/60 24/3/24
f 77/70/77 61/46/61 23/25/23
f 1/58/1 25/57/25 78/71/78
f 25/57/25 10/61/10 59/73/59
f 26/72/26 78/71/78 62/74/62
f 10/61/10 37/62/37 79/75/79
f 37/62/37 7/50/7 58/68/58
f 79/75/79 58/68/58 23/25/23
f 14/55/14 43/64/43 80/76/80
f 43/64/43 3/67/3 57/77/57
f 80/76/80 57/77/57 22/4/22
f 60/69/60 80/76/80 64/1/64
f 118/78/118 137/81/137 136/79/136
f 137/81/137 103/84/103 98/82/98
f 116/83/116 83/151/83 103/84/103
f 91/85/91 116/83/116 137/81/137
f 96/86/96 127/90/127 138/87/138
f 123/88/123 138/87/138 31/14/31
f 138/87/138 119/91/119 6/89/6
f 127/90/127 92/136/92 119/91/119
f 95/92/95 126/96/126 139/93/139
f 122/94/122 139/93/139 34/21/34
f 121/95/121 9/22/9 34/21/34
f 126/96/126 94/114/94 121/95/121
f 140/97/140 110/101/110 99/98/99
f 112/100/112 87/152/87 110/101/110
f 89/102/89 112/100/112 140/97/140
f 97/104/97 128/107/128 141/105/141
f 141/105/141 106/108/106 89/102/89
f 128/107/128 85/153/85 106/108/106
f 93/109/93 125/113/125 142/110/142
f 105/111/105 142/110/142 39/41/39
f 142/110/142 122/94/122 12/42/12
f 125/113/125 95/92/95 122/94/122
f 94/114/94 124/116/124 143/115/143
f 143/115/143 42/45/42 9/22/9
f 123/88/123 13/12/13 42/45/42
f 96/86/96 123/88/123 143/115/143
f 110/101/110 144/118/144 133/117/133
f 144/118/144 118/78/118 100/80/100
f 108/119/108 91/85/91 118/78/118
f 110/101/110 87/152/87 108/119/108
f 86/120/86 107/125/107 145/121/145
f 109/122/109 145/121/145 124/116/124
f 117/123/117 96/86/96 124/116/124
f 90/124/90 117/123/117 145/121/145
f 101/126/101 146/129/146 120/127/120
f 146/129/146 125/113/125 93/109/93
f 114/130/114 95/92/95 125/113/125
f 88/131/88 114/130/114 146/129/146
f 111/132/111 147/133/147 114/130/114
f 147/133/147 126/96/126 95/92/95
f 147/133/147 109/122/109 94/114/94
f 111/132/111 86/120/86 109/122/109
f 115/134/115 148/135/148 117/123/117
f 148/135/148 127/90/127 96/86/96
f 148/135/148 104/137/104 92/136/92
f 115/134/115 84/147/84 104/137/104
f 130/138/130 149/140/149 107/125/107
f 107/125/107 149/140/149 132/139/132
f 149/140/149 133/117/133 100/80/100
f 99/98/99 133/117/133 149/140/149
f 82/128/82 102/143/102 150/141/150
f 101/126/101 150/141/150 131/142/131
f 113/103/113 153/148/153 134/106/134
f 102/143/102 97/104/97 134/106/134
f 88/131/88 131/142/131 151/144/151
f 111/132/111 151/144/151 130/138/130
f 151/144/151 135/99/135 99/98/99
f 90/124/90 132/139/132 152/145/152
f 115/134/115 152/145/152 129/146/129
f 152/145/152 136/79/136 98/82/98
f 132/139/132 100/80/100 136/79/136
f 140/97/140 135/99/135 153/148/153
f 62/74/62 81/149/81 40/31/40
f 68/26/68 40/31/40 81/149/81
f 63/27/63 81/149/81 59/73/59
f 81/149/81 62/74/62 78/71/78
f 150/141/150 134/106/134 153/148/153
f 135/99/135 151/144/151 131/142/131
